<svg width="763" height="93" viewBox="0 0 763 93" fill="none" xmlns="http://www.w3.org/2000/svg">
<path d="M41.9412 90.232C36.6506 91.5973 31.5306 92.28 26.5812 92.28C21.9732 92.28 18.1332 91.768 15.0612 90.744C10.0266 89.0373 6.35722 86.4347 4.05322 82.936C1.83455 79.352 0.72522 74.36 0.72522 67.96V51.576C0.72522 43.128 2.94389 36.728 7.38122 32.376C11.8186 27.9387 17.5359 25.72 24.5332 25.72C30.0799 25.72 35.7972 27.0853 41.6852 29.816L37.8452 41.976C33.7492 40.3547 30.0799 39.544 26.8372 39.544C22.9972 39.544 20.0106 40.6107 17.8772 42.744C15.8292 44.8773 14.8052 47.5653 14.8052 50.808V69.368C14.8052 72.6107 15.9572 74.9147 18.2612 76.28C20.5652 77.6453 23.5092 78.328 27.0932 78.328C29.1412 78.328 31.1892 78.1147 33.2372 77.688C35.2852 77.2613 36.9066 76.8347 38.1012 76.408L41.9412 90.232Z" fill="black"/>
<path d="M46.7297 60.896V60.796L74.5297 32.996L81.9297 39.996L60.8297 60.896L81.7297 82.096L74.5297 88.696L46.7297 60.896Z" fill="black"/>
<path d="M105.312 32.996H117.312L97.8125 88.696H86.1125L105.312 32.996Z" fill="black"/>
<path d="M142.4 60.896L121.3 39.996L128.7 32.996L156.5 60.796V60.896L128.7 88.696L121.5 82.096L142.4 60.896Z" fill="black"/>
<path d="M167.367 46.712C167.367 37.752 170.994 31.608 178.247 28.28C181.746 26.5733 185.842 25.72 190.535 25.72C194.546 25.72 197.916 26.232 200.647 27.256V1.39999H214.599V91L207.559 91.64C202.012 92.2373 197.66 92.536 194.503 92.536C191.346 92.536 188.359 92.2373 185.543 91.64C182.812 91.0427 180.082 90.0613 177.351 88.696C174.279 87.16 171.847 84.8987 170.055 81.912C168.263 78.9253 167.367 75.256 167.367 70.904V46.712ZM200.647 42.104C197.575 40.6533 194.716 39.928 192.071 39.928C188.999 39.928 186.439 40.9093 184.391 42.872C182.343 44.8347 181.319 47.8213 181.319 51.832V71.8C181.319 74.0187 182.514 75.8533 184.903 77.304C187.292 78.7547 190.322 79.48 193.991 79.48C196.295 79.48 198.514 79.1813 200.647 78.584V42.104Z" fill="black"/>
<path d="M240.821 71.928C240.821 74.3173 241.461 76.1947 242.741 77.56C244.106 78.84 246.069 79.48 248.629 79.48C252.554 79.48 257.802 77.7733 264.373 74.36L269.493 86.52C266.421 88.4827 262.922 89.976 258.997 91C255.072 92.024 251.146 92.536 247.221 92.536C240.906 92.536 235.872 91 232.117 87.928C228.448 84.7707 226.613 80.0773 226.613 73.848V47.608C226.613 40.696 228.746 35.32 233.013 31.48C237.365 27.64 243.082 25.72 250.165 25.72C257.248 25.72 262.752 27.64 266.677 31.48C270.688 35.2347 272.693 40.4827 272.693 47.224V66.68L240.821 68.344V71.928ZM258.485 47.48C258.485 44.92 257.674 42.9573 256.053 41.592C254.432 40.2267 252.426 39.544 250.037 39.544C246.794 39.544 244.448 40.3973 242.997 42.104C241.546 43.8107 240.821 45.688 240.821 47.736V55.416L258.485 54.264V47.48Z" fill="black"/>
<path d="M358.442 56.824L349.098 91H335.402L314.794 26.872H330.154L341.802 66.04L352.17 26.872H365.482L376.234 66.04L386.73 26.872H401.834L381.098 91H367.658L358.442 56.824Z" fill="black"/>
<path d="M421.797 15.224C419.749 15.224 417.957 14.456 416.421 12.92C414.885 11.384 414.117 9.592 414.117 7.544C414.117 5.58133 414.885 3.87466 416.421 2.424C417.957 0.887995 419.749 0.119995 421.797 0.119995C423.76 0.119995 425.466 0.887995 426.917 2.424C428.453 3.87466 429.221 5.58133 429.221 7.544C429.221 9.592 428.453 11.384 426.917 12.92C425.466 14.456 423.76 15.224 421.797 15.224ZM414.373 26.872H428.453V91H414.373V26.872Z" fill="black"/>
<path d="M464.596 92.664C451.625 92.408 445.14 86.2213 445.14 74.104V1.39999H459.476V26.872H471.636L468.564 40.056H459.476V74.104C459.476 77.0053 460.287 78.968 461.908 79.992C463.529 80.9307 465.833 81.4 468.82 81.4L464.596 92.664Z" fill="black"/>
<path d="M515.977 51.704C515.977 47.096 514.953 43.8107 512.905 41.848C510.942 39.8853 508.425 38.904 505.353 38.904C503.732 38.904 502.153 39.16 500.617 39.672C499.081 40.0987 497.844 40.6107 496.905 41.208V91H482.825V1.39999H496.905V27.384C499.892 26.2747 503.347 25.72 507.273 25.72C511.71 25.72 515.678 26.5307 519.177 28.152C522.59 29.688 525.236 31.992 527.113 35.064C529.076 38.136 530.057 42.0187 530.057 46.712V91H515.977V51.704Z" fill="black"/>
<path d="M593.223 66.04C593.65 69.7947 595.186 72.824 597.831 75.128C600.476 77.432 603.932 78.584 608.199 78.584C611.783 78.584 614.684 77.9867 616.903 76.792C619.207 75.5973 620.871 74.1467 621.895 72.44C622.919 70.7333 623.431 69.0693 623.431 67.448C623.431 63.6933 622.492 60.5787 620.615 58.104C618.823 55.544 616.562 53.5387 613.831 52.088C611.186 50.552 607.559 48.8027 602.951 46.84C597.916 44.7067 593.905 42.7867 590.919 41.08C588.017 39.288 585.5 36.8987 583.367 33.912C581.319 30.84 580.295 26.9573 580.295 22.264C580.295 18.5093 581.362 14.968 583.495 11.64C585.628 8.22666 588.871 5.45333 593.223 3.31999C597.575 1.18666 602.908 0.119995 609.223 0.119995C613.404 0.119995 616.86 0.418663 619.591 1.016C622.321 1.61333 625.095 2.59466 627.911 3.96L623.431 17.272C620.359 16.248 617.842 15.5227 615.879 15.096C614.002 14.6693 611.825 14.456 609.351 14.456C604.487 14.456 600.903 15.3093 598.599 17.016C596.295 18.7227 595.271 20.8987 595.527 23.544C595.783 25.6773 597.063 27.512 599.367 29.048C601.756 30.584 605.425 32.4613 610.375 34.68C616.177 37.24 620.999 39.672 624.839 41.976C628.679 44.28 631.964 47.4373 634.695 51.448C637.511 55.4587 638.919 60.3653 638.919 66.168C638.919 73.7627 636.401 80.0347 631.367 84.984C626.332 89.9333 618.652 92.408 608.327 92.408C602.012 92.408 596.594 91.256 592.071 88.952C587.634 86.5627 584.22 83.5333 581.831 79.864C579.527 76.1093 578.29 72.2267 578.119 68.216L593.223 66.04Z" fill="black"/>
<path d="M686.477 51.704C686.477 47.096 685.453 43.8107 683.405 41.848C681.442 39.8853 678.925 38.904 675.853 38.904C674.232 38.904 672.653 39.16 671.117 39.672C669.581 40.0987 668.344 40.6107 667.405 41.208V91H653.325V1.39999H667.405V27.384C670.392 26.2747 673.847 25.72 677.773 25.72C682.21 25.72 686.178 26.5307 689.677 28.152C693.09 29.688 695.736 31.992 697.613 35.064C699.576 38.136 700.557 42.0187 700.557 46.712V91H686.477V51.704Z" fill="black"/>
<path d="M762.274 91C753.058 91.9387 746.402 92.408 742.306 92.408C733.346 92.408 726.221 90.744 720.93 87.416C715.639 84.088 712.994 78.072 712.994 69.368V58.744C712.994 50.296 715.938 44.6213 721.826 41.72C724.642 40.3547 727.842 39.672 731.426 39.672C734.583 39.672 737.698 40.0987 740.77 40.952C743.842 41.8053 746.317 42.744 748.194 43.768C748.194 40.6107 746.914 38.4773 744.354 37.368C741.794 36.1733 738.509 35.576 734.498 35.576L735.65 25.848C743.842 25.848 749.858 27.1707 753.698 29.816C757.623 32.376 760.013 35.448 760.866 39.032C761.805 42.616 762.274 47.224 762.274 52.856V91ZM748.194 58.744C746.658 57.6347 744.482 56.6107 741.666 55.672C738.935 54.648 736.418 54.136 734.114 54.136C732.066 54.136 730.402 54.648 729.122 55.672C727.842 56.696 727.202 58.3173 727.202 60.536V67.576C727.202 75.3413 731.767 79.224 740.898 79.224C743.543 79.224 745.975 79.0107 748.194 78.584V58.744Z" fill="black"/>
</svg>
